<svg width="16" height="16" viewBox="0 0 16 16" fill="none" xmlns="http://www.w3.org/2000/svg">
<path d="M2.784 5.5H4.16V6.876C4.16 6.912 4.196 6.94 4.24 6.94H5.2C5.244 6.94 5.28 6.912 5.28 6.874V5.5H6.656C6.692 5.5 6.72 5.464 6.72 5.42V4.46C6.72 4.416 6.692 4.38 6.654 4.38H5.28V3.004C5.28 2.968 5.244 2.94 5.2 2.94H4.24C4.196 2.94 4.16 2.968 4.16 3.004V4.38H2.784C2.748 4.38 2.72 4.416 2.72 4.46V5.42C2.72 5.464 2.748 5.5 2.784 5.5ZM9.344 5.5H13.216C13.252 5.5 13.28 5.464 13.28 5.42V4.46C13.28 4.416 13.252 4.38 13.214 4.38H9.344C9.308 4.38 9.28 4.416 9.28 4.46V5.42C9.28 5.464 9.308 5.5 9.344 5.5ZM9.344 10.8H13.216C13.252 10.8 13.28 10.764 13.28 10.72V9.76C13.28 9.716 13.252 9.68 13.214 9.68H9.344C9.308 9.68 9.28 9.716 9.28 9.76V10.72C9.28 10.764 9.308 10.8 9.344 10.8ZM9.344 12.88H13.216C13.252 12.88 13.28 12.844 13.28 12.8V11.84C13.28 11.796 13.252 11.76 13.214 11.76H9.344C9.308 11.76 9.28 11.796 9.28 11.84V12.8C9.28 12.844 9.308 12.88 9.344 12.88ZM5.43 11.26L6.654 9.762C6.74 9.658 6.668 9.5 6.536 9.5H5.52C5.474 9.5 5.43 9.52 5.402 9.558L4.722 10.39L4.042 9.558C4.02769 9.54038 4.00974 9.52606 3.98936 9.51605C3.96899 9.50604 3.94669 9.50056 3.924 9.5H2.906C2.774 9.5 2.702 9.658 2.788 9.762L4.012 11.26L2.758 12.796C2.67 12.9 2.742 13.058 2.874 13.058H3.89C3.936 13.058 3.98 13.038 4.008 13L4.718 12.13L5.428 13C5.458 13.036 5.502 13.058 5.546 13.058H6.562C6.694 13.058 6.766 12.9 6.68 12.796L5.43 11.26ZM15.36 0H0.64C0.286 0 0 0.286 0 0.64V15.36C0 15.714 0.286 16 0.64 16H15.36C15.714 16 16 15.714 16 15.36V0.64C16 0.286 15.714 0 15.36 0ZM14.64 14.64H1.36V1.36H14.64V14.64Z" fill="#F5F6F7"/>
</svg>
