<svg width="32" height="32" viewBox="0 0 32 32" fill="none" xmlns="http://www.w3.org/2000/svg">
<path d="M16 32C24.8366 32 32 24.8366 32 16C32 7.16344 24.8366 0 16 0C7.16344 0 0 7.16344 0 16C0 24.8366 7.16344 32 16 32Z" fill="#E5E5E5"/>
<g clip-path="url(#clip0_6_27)">
<path d="M10.1622 13.4991C10.1622 13.4991 9.59391 12.9237 10.2354 11.6971C10.877 10.4706 12.323 9.90095 13.0927 9.65064C13.8624 9.40033 16.5169 8.37625 18.7735 9.55782C18.7735 9.55782 20.2523 10.1073 20.0308 12.5584C20.0308 12.5584 20 11.1573 18.404 11.0842C16.808 11.011 15.0398 11.9361 13.8178 12.515L12.0989 13.5786C12.0989 13.5786 11.0043 14.2817 10.1622 13.4991Z" fill="#242372"/>
<path d="M15.6141 12.0319C15.6141 12.0319 15.6655 13.0616 15.5682 13.3352C15.5682 13.3352 17.6581 12.4904 19.5935 13.0162C19.5935 13.0162 19.8854 12.0725 19.2381 11.6412C18.5909 11.21 17.1647 11.5334 17.1647 11.5334C17.1647 11.5334 16.2386 11.7622 15.6141 12.0319Z" fill="url(#paint0_linear_6_27)"/>
<path d="M10.6403 20.6594C10.6403 20.6594 8.81267 19.945 9.01582 18.5697C9.21898 17.1945 11.507 15.6472 13.242 14.7143C14.6455 13.9594 18.326 12.1125 20.9276 13.9723C20.9276 13.9723 22.5158 15.3149 21.8266 17.9057C21.4869 19.1827 20.7551 20.3437 19.6597 21.2586C18.7054 22.0561 15.2354 23.7653 13.6696 23.9994C13.6696 23.9994 17.8673 21.6583 19.0944 20.2828C20.4612 18.7507 20.4127 17.5555 19.8881 17.0176C19.3634 16.4798 17.8437 16.5164 16.2841 16.9796C16.2841 16.9796 12.8744 18.1071 11.2246 19.4911C11.2241 19.4911 10.2252 20.1645 10.6403 20.6594Z" fill="#242372"/>
<path d="M11.0971 20.6685C11.0971 20.6685 10.767 20.3263 11.5368 19.7068C12.1886 19.1833 15.1838 17.4151 17.9252 16.9392C17.9252 16.9392 15.81 19.3028 13.8386 20.2824C11.8673 21.2619 11.1553 20.7666 11.0971 20.6685Z" fill="url(#paint1_linear_6_27)"/>
<path d="M19.3529 17.1208C19.3529 17.1208 20.042 17.3783 19.9035 18.3126C19.7783 19.1562 18.7608 20.1902 18.7608 20.1902C18.7608 20.1902 18.6706 20.4739 16.3632 22.0752L13.6696 23.7994C13.6696 23.7994 13.9088 23.7148 13.9592 23.118C13.9592 23.1173 18.7504 18.9339 19.3529 17.1208Z" fill="url(#paint2_linear_6_27)"/>
<path opacity="0.2" d="M11.5449 12.4283C11.1721 12.5901 10.7827 12.2288 10.8891 11.8161C10.9862 11.4376 11.2828 10.9466 12.0993 10.5491C13.5902 9.82306 15.761 9.27112 16.8271 9.98993C16.8271 9.98993 14.4412 10.2057 12.7743 11.5987C12.221 12.0613 11.8254 12.3067 11.5449 12.4283Z" fill="white"/>
<path opacity="0.2" d="M9.91156 18.2433C9.91156 18.2433 10.0849 16.3959 15.6523 14.2665C15.6523 14.2665 17.374 13.5117 18.8457 13.7408C20.3173 13.9699 20.484 14.6306 20.3317 15.5007C20.3317 15.5007 18.6387 13.9302 15.1447 15.3995C11.6508 16.8688 12.1833 16.8786 9.91156 18.2433Z" fill="white"/>
</g>
<defs>
<linearGradient id="paint0_linear_6_27" x1="17.5129" y1="12.6129" x2="32.0016" y2="0.132529" gradientUnits="userSpaceOnUse">
<stop stop-color="#FCFC1F"/>
<stop offset="1" stop-color="#242372"/>
</linearGradient>
<linearGradient id="paint1_linear_6_27" x1="4171.74" y1="3959.22" x2="7239.65" y2="-3932.48" gradientUnits="userSpaceOnUse">
<stop stop-color="#FCFC1F"/>
<stop offset="1" stop-color="#242372"/>
</linearGradient>
<linearGradient id="paint2_linear_6_27" x1="5188.15" y1="7216.05" x2="11923.6" y2="-4839.66" gradientUnits="userSpaceOnUse">
<stop stop-color="#FCFC1F"/>
<stop offset="1" stop-color="#242372"/>
</linearGradient>
<clipPath id="clip0_6_27">
<rect width="13" height="15" fill="white" transform="translate(9 9)"/>
</clipPath>
</defs>
</svg>
