<svg width="14" height="14" viewBox="0 0 14 14" fill="none" xmlns="http://www.w3.org/2000/svg">
<path d="M12.8327 7.00002L13.5687 5.72802C13.6572 5.57498 13.6812 5.39308 13.6356 5.2223C13.59 5.05153 13.4784 4.90587 13.3254 4.81735L12.052 4.08135V2.61468C12.052 2.43787 11.9818 2.2683 11.8568 2.14328C11.7318 2.01826 11.5622 1.94802 11.3854 1.94802H9.9194L9.184 0.675348C9.0952 0.522628 8.94986 0.411018 8.77938 0.364678C8.69482 0.341758 8.60656 0.335848 8.5197 0.347298C8.43284 0.358738 8.34912 0.387308 8.27338 0.431348L7.00005 1.16735L5.72671 0.430678C5.5736 0.342278 5.39163 0.318328 5.22085 0.364088C5.05007 0.409838 4.90446 0.521568 4.81605 0.674678L4.08005 1.94802H2.61405C2.43724 1.94802 2.26767 2.01826 2.14264 2.14328C2.01762 2.2683 1.94738 2.43787 1.94738 2.61468V4.08069L0.67405 4.81669C0.59807 4.86039 0.53147 4.91867 0.47809 4.98819C0.42471 5.05771 0.38559 5.13709 0.36297 5.22178C0.34036 5.30646 0.33471 5.39478 0.34633 5.48166C0.35796 5.56853 0.38663 5.65226 0.43071 5.72802L1.16671 7.00002L0.43071 8.27202C0.34271 8.4252 0.31883 8.60697 0.36429 8.77768C0.40974 8.9484 0.52085 9.0942 0.67338 9.1834L1.94671 9.9194V11.3854C1.94671 11.5622 2.01695 11.7317 2.14198 11.8568C2.267 11.9818 2.43657 12.052 2.61338 12.052H4.08005L4.81605 13.3254C4.87507 13.4262 4.95934 13.51 5.06057 13.5685C5.16179 13.6269 5.27649 13.658 5.39338 13.6587C5.50938 13.6587 5.62471 13.628 5.72738 13.5687L6.99938 12.8327L8.27271 13.5687C8.42579 13.657 8.60764 13.6809 8.77836 13.6353C8.94908 13.5897 9.0947 13.4782 9.1834 13.3254L9.9187 12.052H11.3847C11.5615 12.052 11.7311 11.9818 11.8561 11.8568C11.9811 11.7317 12.0514 11.5622 12.0514 11.3854V9.9194L13.3247 9.1834C13.4006 9.1395 13.467 9.0812 13.5203 9.0116C13.5736 8.94211 13.6127 8.86275 13.6353 8.77812C13.6579 8.69348 13.6635 8.60522 13.652 8.51838C13.6405 8.43154 13.612 8.34782 13.568 8.27202L12.8327 7.00002ZM5.33271 3.66002C5.59802 3.66011 5.85242 3.76558 6.03996 3.95324C6.2275 4.14091 6.3328 4.39538 6.33271 4.66069C6.33263 4.92599 6.22715 5.18039 6.03949 5.36793C5.85183 5.55547 5.59735 5.66077 5.33205 5.66069C5.06674 5.6606 4.81234 5.55512 4.6248 5.36746C4.43727 5.1798 4.33196 4.92532 4.33205 4.66002C4.33214 4.39471 4.43761 4.14031 4.62527 3.95277C4.81294 3.76524 5.06741 3.65993 5.33271 3.66002ZM5.53271 10.06L4.46605 9.2607L8.46605 3.92735L9.5327 4.72669L5.53271 10.06ZM8.66605 10.3267C8.53468 10.3266 8.40461 10.3007 8.28326 10.2504C8.16191 10.2001 8.05166 10.1264 7.9588 10.0335C7.86594 9.9405 7.7923 9.8302 7.74207 9.7089C7.69184 9.5875 7.666 9.4574 7.66605 9.326C7.66609 9.1947 7.69201 9.0646 7.74232 8.94323C7.79263 8.82188 7.86635 8.71163 7.95927 8.61877C8.0522 8.52592 8.1625 8.45227 8.28388 8.40204C8.40526 8.35181 8.53535 8.32598 8.66671 8.32602C8.93202 8.32611 9.1864 8.43158 9.374 8.61925C9.5615 8.80691 9.6668 9.0614 9.6667 9.3267C9.6666 9.592 9.5611 9.8464 9.3735 10.0339C9.1858 10.2215 8.93135 10.3268 8.66605 10.3267Z" fill="#9A6AFF"/>
</svg>
