<svg width="80" height="80" viewBox="0 0 80 80" fill="none" xmlns="http://www.w3.org/2000/svg">
<path d="M40 80C62.0914 80 80 62.0914 80 40C80 17.9086 62.0914 0 40 0C17.9086 0 0 17.9086 0 40C0 62.0914 17.9086 80 40 80Z" fill="url(#paint0_linear_12_10)"/>
<path d="M38.265 33.0889L34.2054 28.4032C33.7374 27.8632 32.8794 27.8656 32.3359 28.4104L28.9975 31.7546C28.0039 32.7493 27.7195 34.2264 28.2943 35.4108C31.7282 42.5203 37.4623 48.2621 44.5674 51.7058C45.7506 52.2806 47.2266 51.9962 48.2202 51.0014L51.5898 47.626C52.1357 47.0801 52.1369 46.2173 51.5922 45.7493L46.8882 41.7116C46.3962 41.2892 45.6318 41.3444 45.1386 41.8388L43.5018 43.4779C43.418 43.5657 43.3077 43.6236 43.1878 43.6427C43.0679 43.6617 42.9451 43.6409 42.8382 43.5835C40.1627 42.0429 37.9434 39.8208 36.4062 37.1435C36.3487 37.0364 36.3278 36.9134 36.3469 36.7933C36.366 36.6732 36.4239 36.5627 36.5118 36.4787L38.1438 34.8456C38.6382 34.3488 38.6922 33.5809 38.265 33.0877V33.0889Z" stroke="white" stroke-width="2" stroke-linecap="round" stroke-linejoin="round"/>
<defs>
<linearGradient id="paint0_linear_12_10" x1="40" y1="0" x2="40" y2="80" gradientUnits="userSpaceOnUse">
<stop stop-color="white" stop-opacity="0.16"/>
<stop offset="1" stop-color="white" stop-opacity="0.14"/>
</linearGradient>
</defs>
</svg>
