<svg width="1440" height="263" viewBox="0 0 1440 263" fill="none" xmlns="http://www.w3.org/2000/svg">
<g clip-path="url(#clip0_3_8)">
<path opacity="0.3" d="M423.5 145C327.5 84.6 99.5 198.5 -2.5 263H1429.5V0.5L1372.5 105.5C1340.9 163.9 1241.67 111.167 1196 77.5C1006 -70.9 724.5 87.6667 607.5 185.5C559.5 217.9 464.833 172 423.5 145Z" fill="url(#paint0_linear_3_8)"/>
<path opacity="0.3" d="M765 145C669 84.6 441 198.5 339 263H1771V0.5L1714 105.5C1682.4 163.9 1583.17 111.167 1537.5 77.5C1347.5 -70.9 1066 87.6667 949 185.5C901 217.9 806.333 172 765 145Z" fill="url(#paint1_linear_3_8)"/>
</g>
<defs>
<linearGradient id="paint0_linear_3_8" x1="21.0493" y1="144.239" x2="1435.79" y2="366.121" gradientUnits="userSpaceOnUse">
<stop/>
<stop offset="1" stop-opacity="0"/>
</linearGradient>
<linearGradient id="paint1_linear_3_8" x1="362.549" y1="144.239" x2="1777.29" y2="366.121" gradientUnits="userSpaceOnUse">
<stop/>
<stop offset="1" stop-opacity="0"/>
</linearGradient>
<clipPath id="clip0_3_8">
<rect width="1440" height="263" fill="white"/>
</clipPath>
</defs>
</svg>
